<svg width="697.679" height="69.201" viewBox="-2.8787248650948634 -3.200881465822288 701.6787248650951 73.20127053520149" xmlns="http://www.w3.org/2000/svg"><g id="svgGroup" stroke-linecap="round" fill-rule="evenodd" font-size="9pt" stroke="#ffffff" stroke-width="0.25mm" fill="#ffffff" style="stroke:#ffffff;stroke-width:0.25mm;fill:#ffffff"><path d="M 98.679 68 L 53.179 68 L 67.379 1.2 L 112.879 1.2 L 111.179 9.3 L 75.279 9.3 L 70.979 29.6 L 97.479 29.6 L 95.679 37.6 L 69.279 37.6 L 64.479 59.9 L 100.379 59.9 L 98.679 68 Z M 620.179 68 L 574.679 68 L 588.879 1.2 L 634.379 1.2 L 632.679 9.3 L 596.779 9.3 L 592.479 29.6 L 618.979 29.6 L 617.179 37.6 L 590.779 37.6 L 585.979 59.9 L 621.879 59.9 L 620.179 68 Z M 288.379 40 L 296.679 1.2 L 306.279 1.2 L 297.879 40.8 A 64.514 64.514 0 0 0 297.395 43.502 A 50.431 50.431 0 0 0 297.129 45.45 Q 296.879 47.6 296.879 49.4 A 18.99 18.99 0 0 0 297.138 52.651 Q 297.441 54.395 298.101 55.759 A 8.166 8.166 0 0 0 299.979 58.3 Q 302.955 60.989 309.528 61.096 A 33.852 33.852 0 0 0 310.079 61.1 A 34.713 34.713 0 0 0 314.923 60.78 Q 318.035 60.341 320.579 59.3 A 15.437 15.437 0 0 0 326.62 54.81 A 19.698 19.698 0 0 0 327.929 53.05 A 24.739 24.739 0 0 0 329.965 49.242 Q 331.516 45.675 332.579 40.8 L 341.079 1.2 L 350.679 1.2 L 342.379 40 A 74.663 74.663 0 0 1 340.758 46.391 Q 339.041 52.029 336.679 55.9 A 33.699 33.699 0 0 1 333.621 60.173 Q 331.776 62.344 329.736 63.856 A 19.2 19.2 0 0 1 328.579 64.65 A 26.245 26.245 0 0 1 321.341 67.873 A 24.263 24.263 0 0 1 319.179 68.35 A 56.4 56.4 0 0 1 310.167 69.197 A 52.186 52.186 0 0 1 309.579 69.2 A 44.598 44.598 0 0 1 303.418 68.804 Q 296.701 67.864 292.729 64.7 Q 287.664 60.666 287.139 52.453 A 30.656 30.656 0 0 1 287.079 50.5 A 34.607 34.607 0 0 1 287.202 47.646 A 43.359 43.359 0 0 1 287.429 45.55 A 74.31 74.31 0 0 1 288.061 41.612 A 86.595 86.595 0 0 1 288.379 40 Z M 111.879 53.3 L 120.979 50.8 Q 122.879 56.2 127.629 58.75 Q 132.379 61.3 137.579 61.3 Q 141.479 61.3 144.979 59.95 Q 148.479 58.6 150.679 55.95 A 9.512 9.512 0 0 0 152.868 50.116 A 12.086 12.086 0 0 0 152.879 49.6 Q 152.879 46 150.929 43.85 A 13.274 13.274 0 0 0 148.193 41.575 A 17.789 17.789 0 0 0 145.779 40.3 A 53.178 53.178 0 0 0 141.544 38.668 A 64.127 64.127 0 0 0 138.779 37.8 Q 134.979 36.7 131.129 35.4 Q 127.279 34.1 124.079 32.1 Q 120.879 30.1 118.929 26.85 Q 117.27 24.086 117.022 19.983 A 24.599 24.599 0 0 1 116.979 18.5 A 18.336 18.336 0 0 1 117.593 13.643 A 14.149 14.149 0 0 1 120.429 8.2 A 20.816 20.816 0 0 1 128.202 2.488 A 24.869 24.869 0 0 1 129.279 2.05 Q 134.679 0 140.679 0 Q 145.579 0 150.279 1.4 A 27.434 27.434 0 0 1 158.493 5.38 A 26.195 26.195 0 0 1 158.729 5.55 Q 162.479 8.3 164.379 12.5 L 155.179 15.1 A 10.86 10.86 0 0 0 151.436 10.994 A 14.929 14.929 0 0 0 149.129 9.75 Q 144.879 7.9 140.279 7.9 A 20.88 20.88 0 0 0 135.03 8.545 A 18.94 18.94 0 0 0 133.529 9 A 12.415 12.415 0 0 0 130.365 10.618 A 10.711 10.711 0 0 0 128.429 12.4 Q 126.479 14.7 126.479 18.2 Q 126.479 21.5 128.429 23.6 A 12.772 12.772 0 0 0 131.023 25.719 A 17.617 17.617 0 0 0 133.629 27.05 A 60.692 60.692 0 0 0 137.926 28.64 A 73.653 73.653 0 0 0 140.729 29.5 Q 144.579 30.6 148.429 31.95 A 37.093 37.093 0 0 1 154.655 34.781 A 33.866 33.866 0 0 1 155.529 35.3 Q 158.779 37.3 160.729 40.4 Q 162.485 43.193 162.66 47.365 A 22.422 22.422 0 0 1 162.679 48.3 A 19.409 19.409 0 0 1 162.021 53.44 A 16.461 16.461 0 0 1 160.479 57.2 Q 158.279 61.1 154.579 63.75 A 28.193 28.193 0 0 1 146.565 67.712 A 31.564 31.564 0 0 1 146.279 67.8 Q 141.679 69.2 136.779 69.2 Q 131.479 69.2 126.479 67.5 Q 121.479 65.8 117.629 62.25 Q 113.779 58.7 111.879 53.3 Z M 172.779 53.3 L 181.879 50.8 Q 183.779 56.2 188.529 58.75 Q 193.279 61.3 198.479 61.3 Q 202.379 61.3 205.879 59.95 Q 209.379 58.6 211.579 55.95 A 9.512 9.512 0 0 0 213.768 50.116 A 12.086 12.086 0 0 0 213.779 49.6 Q 213.779 46 211.829 43.85 A 13.274 13.274 0 0 0 209.093 41.575 A 17.789 17.789 0 0 0 206.679 40.3 A 53.178 53.178 0 0 0 202.444 38.668 A 64.127 64.127 0 0 0 199.679 37.8 Q 195.879 36.7 192.029 35.4 Q 188.179 34.1 184.979 32.1 Q 181.779 30.1 179.829 26.85 Q 178.17 24.086 177.922 19.983 A 24.599 24.599 0 0 1 177.879 18.5 A 18.336 18.336 0 0 1 178.493 13.643 A 14.149 14.149 0 0 1 181.329 8.2 A 20.816 20.816 0 0 1 189.102 2.488 A 24.869 24.869 0 0 1 190.179 2.05 Q 195.579 0 201.579 0 Q 206.479 0 211.179 1.4 A 27.434 27.434 0 0 1 219.393 5.38 A 26.195 26.195 0 0 1 219.629 5.55 Q 223.379 8.3 225.279 12.5 L 216.079 15.1 A 10.86 10.86 0 0 0 212.336 10.994 A 14.929 14.929 0 0 0 210.029 9.75 Q 205.779 7.9 201.179 7.9 A 20.88 20.88 0 0 0 195.93 8.545 A 18.94 18.94 0 0 0 194.429 9 A 12.415 12.415 0 0 0 191.265 10.618 A 10.711 10.711 0 0 0 189.329 12.4 Q 187.379 14.7 187.379 18.2 Q 187.379 21.5 189.329 23.6 A 12.772 12.772 0 0 0 191.923 25.719 A 17.617 17.617 0 0 0 194.529 27.05 A 60.692 60.692 0 0 0 198.826 28.64 A 73.653 73.653 0 0 0 201.629 29.5 Q 205.479 30.6 209.329 31.95 A 37.093 37.093 0 0 1 215.555 34.781 A 33.866 33.866 0 0 1 216.429 35.3 Q 219.679 37.3 221.629 40.4 Q 223.385 43.193 223.56 47.365 A 22.422 22.422 0 0 1 223.579 48.3 A 19.409 19.409 0 0 1 222.921 53.44 A 16.461 16.461 0 0 1 221.379 57.2 Q 219.179 61.1 215.479 63.75 A 28.193 28.193 0 0 1 207.465 67.712 A 31.564 31.564 0 0 1 207.179 67.8 Q 202.579 69.2 197.679 69.2 Q 192.379 69.2 187.379 67.5 Q 182.379 65.8 178.529 62.25 Q 174.679 58.7 172.779 53.3 Z M 660.479 68 L 649.279 68 L 640.479 1.2 L 650.379 1.2 L 656.579 57 L 686.579 1.2 L 697.679 1.2 L 660.479 68 Z M 0.179 49 L 9.179 46.6 Q 8.979 47.9 8.829 49.1 A 19.275 19.275 0 0 0 8.689 50.809 A 16.733 16.733 0 0 0 8.679 51.4 Q 8.679 56.3 11.079 58.9 Q 13.127 61.12 16.997 61.445 A 16.517 16.517 0 0 0 18.379 61.5 Q 21.579 61.5 24.379 60.3 A 10.069 10.069 0 0 0 27.252 58.399 Q 28.237 57.487 29.126 56.258 A 18.008 18.008 0 0 0 29.379 55.9 Q 31.579 52.7 32.879 46.7 L 42.579 1.2 L 52.179 1.2 L 42.479 46.8 A 56.265 56.265 0 0 1 41.156 51.956 Q 40.386 54.431 39.448 56.455 A 24.17 24.17 0 0 1 37.779 59.5 Q 35.335 63.247 32.494 65.302 A 14.426 14.426 0 0 1 31.179 66.15 A 21.728 21.728 0 0 1 26.886 68.038 A 18.294 18.294 0 0 1 23.929 68.7 Q 20.279 69.2 17.179 69.2 A 22.207 22.207 0 0 1 11.74 68.574 A 14.717 14.717 0 0 1 3.779 63.65 A 16.198 16.198 0 0 1 0.299 55.859 Q -0.231 52.728 0.179 49 Z M 229.379 49 L 238.379 46.6 Q 238.179 47.9 238.029 49.1 A 19.275 19.275 0 0 0 237.889 50.809 A 16.733 16.733 0 0 0 237.879 51.4 Q 237.879 56.3 240.279 58.9 Q 242.327 61.12 246.197 61.445 A 16.517 16.517 0 0 0 247.579 61.5 Q 250.779 61.5 253.579 60.3 A 10.069 10.069 0 0 0 256.452 58.399 Q 257.437 57.487 258.326 56.258 A 18.008 18.008 0 0 0 258.579 55.9 Q 260.779 52.7 262.079 46.7 L 271.779 1.2 L 281.379 1.2 L 271.679 46.8 A 56.265 56.265 0 0 1 270.356 51.956 Q 269.586 54.431 268.648 56.455 A 24.17 24.17 0 0 1 266.979 59.5 Q 264.535 63.247 261.694 65.302 A 14.426 14.426 0 0 1 260.379 66.15 A 21.728 21.728 0 0 1 256.086 68.038 A 18.294 18.294 0 0 1 253.129 68.7 Q 249.479 69.2 246.379 69.2 A 22.207 22.207 0 0 1 240.94 68.574 A 14.717 14.717 0 0 1 232.979 63.65 A 16.198 16.198 0 0 1 229.499 55.859 Q 228.969 52.728 229.379 49 Z M 370.179 68 L 351.679 68 L 365.879 1.2 L 384.279 1.2 A 57.16 57.16 0 0 1 392.98 1.814 Q 397.443 2.504 400.953 3.967 A 20.611 20.611 0 0 1 409.179 9.9 A 21.193 21.193 0 0 1 413.18 17.966 Q 415.155 25.383 413.379 36.1 A 42.701 42.701 0 0 1 410.79 45.341 A 33.001 33.001 0 0 1 405.679 53.9 A 35.702 35.702 0 0 1 391.244 64.278 A 41.827 41.827 0 0 1 390.679 64.5 A 51.956 51.956 0 0 1 378.405 67.508 A 66.548 66.548 0 0 1 370.179 68 Z M 437.579 68 L 419.079 68 L 433.279 1.2 L 451.679 1.2 A 57.16 57.16 0 0 1 460.38 1.814 Q 464.843 2.504 468.353 3.967 A 20.611 20.611 0 0 1 476.579 9.9 A 21.193 21.193 0 0 1 480.58 17.966 Q 482.555 25.383 480.779 36.1 A 42.701 42.701 0 0 1 478.19 45.341 A 33.001 33.001 0 0 1 473.079 53.9 A 35.702 35.702 0 0 1 458.644 64.278 A 41.827 41.827 0 0 1 458.079 64.5 A 51.956 51.956 0 0 1 445.805 67.508 A 66.548 66.548 0 0 1 437.579 68 Z M 525.779 68 L 507.279 68 L 521.479 1.2 L 539.879 1.2 A 57.16 57.16 0 0 1 548.58 1.814 Q 553.043 2.504 556.553 3.967 A 20.611 20.611 0 0 1 564.779 9.9 A 21.193 21.193 0 0 1 568.78 17.966 Q 570.755 25.383 568.979 36.1 A 42.701 42.701 0 0 1 566.39 45.341 A 33.001 33.001 0 0 1 561.279 53.9 A 35.702 35.702 0 0 1 546.844 64.278 A 41.827 41.827 0 0 1 546.279 64.5 A 51.956 51.956 0 0 1 534.005 67.508 A 66.548 66.548 0 0 1 525.779 68 Z M 373.779 9.2 L 362.979 60.1 L 371.579 60.1 A 49.535 49.535 0 0 0 380.214 59.377 A 39.894 39.894 0 0 0 386.479 57.75 Q 393.179 55.4 397.779 50 A 24.178 24.178 0 0 0 401.698 43.448 Q 403.152 39.908 403.879 35.5 Q 405.815 24.127 402.838 17.958 A 12.556 12.556 0 0 0 401.129 15.3 A 14.44 14.44 0 0 0 395.667 11.408 Q 390.52 9.2 382.279 9.2 L 373.779 9.2 Z M 441.179 9.2 L 430.379 60.1 L 438.979 60.1 A 49.535 49.535 0 0 0 447.614 59.377 A 39.894 39.894 0 0 0 453.879 57.75 Q 460.579 55.4 465.179 50 A 24.178 24.178 0 0 0 469.098 43.448 Q 470.552 39.908 471.279 35.5 Q 473.215 24.127 470.238 17.958 A 12.556 12.556 0 0 0 468.529 15.3 A 14.44 14.44 0 0 0 463.067 11.408 Q 457.92 9.2 449.679 9.2 L 441.179 9.2 Z M 529.379 9.2 L 518.579 60.1 L 527.179 60.1 A 49.535 49.535 0 0 0 535.814 59.377 A 39.894 39.894 0 0 0 542.079 57.75 Q 548.779 55.4 553.379 50 A 24.178 24.178 0 0 0 557.298 43.448 Q 558.752 39.908 559.479 35.5 Q 561.415 24.127 558.438 17.958 A 12.556 12.556 0 0 0 556.729 15.3 A 14.44 14.44 0 0 0 551.267 11.408 Q 546.12 9.2 537.879 9.2 L 529.379 9.2 Z M 486.938 67.359 A 6.138 6.138 0 0 0 491.379 69.2 A 7.619 7.619 0 0 0 491.463 69.2 A 6.257 6.257 0 0 0 495.979 67.3 A 7.796 7.796 0 0 0 496.038 67.241 A 6.138 6.138 0 0 0 497.879 62.8 A 7.619 7.619 0 0 0 497.878 62.716 A 6.257 6.257 0 0 0 495.979 58.2 Q 494.079 56.3 491.379 56.3 A 6.201 6.201 0 0 0 489.094 56.718 A 6.465 6.465 0 0 0 486.879 58.2 Q 484.979 60.1 484.979 62.8 A 6.201 6.201 0 0 0 485.397 65.085 A 6.465 6.465 0 0 0 486.879 67.3 A 7.796 7.796 0 0 0 486.938 67.359 Z" vector-effect="non-scaling-stroke"/></g></svg>